# file generated by UVMapper
# NumVerts/NumTVerts/NumVNormals/NumFacets   200/140/142/122
# NumGroups/NumMaterials/NumRegions   1/2/0
# x/y/color/ppu   512/512/0/50.00000000

mtllib cookie.mtl

v  19.79446411  11.63808060 -9.29431915
v  19.79446411  11.63808060 -9.29431915
v  21.90320206  11.63808060 -2.78819323
v  21.90320206  11.63808060 -2.78819323
v  21.89822578  11.63808060  4.05113697
v  21.89822578  11.63808060  4.05113697
v  19.78001595  11.63808060  10.55419540
v  19.78001595  11.63808060  10.55419540
v  15.75593376  11.63808060  16.08440399
v  15.75593376  11.63808060  16.08440399
v  10.21987534  11.63808060  20.10043335
v  10.21987534  11.63808060  20.10043335
v  3.71374917  11.63808060  22.20916557
v  3.71374917  11.63808060  22.20916557
v -3.12558007  11.63808060  22.20418549
v -3.12558007  11.63808060  22.20418549
v -9.62863636  11.63808060  20.08598900
v -9.62863636  11.63808060  20.08598900
v -15.15884590  11.63808060  16.06190300
v -15.15884590  11.63808060  16.06190300
v -19.17487526  11.63808060  10.52584362
v -19.17487526  11.63808060  10.52584362
v -21.28361511  11.63808060  4.01971626
v -21.28361511  11.63808060  4.01971626
v -21.27862930  11.63808060 -2.81961894
v -21.27862930  11.63808060 -2.81961894
v -19.16042709  11.63808060 -9.32266998
v -19.16042709  11.63808060 -9.32266998
v -15.13634491  11.63808060 -14.85287857
v -15.13634491  11.63808060 -14.85287857
v -9.60028458  11.63808060 -18.86890602
v -9.60028458  11.63808060 -18.86890602
v -3.09415936  11.63808060 -20.97764015
v -3.09415936  11.63808060 -20.97764015
v  3.74517798  11.63808060 -20.97266769
v  3.74517798  11.63808060 -20.97266769
v  10.24822712  11.63808060 -18.85446167
v  10.24822712  11.63808060 -18.85446167
v  15.77843571  11.63808060 -14.83037758
v  15.77843571  11.63808060 -14.83037758
v  19.91278839  12.22619820 -9.35449886
v  19.91278839  12.22619820 -9.35449886
v  22.03433609  12.22619820 -2.80886817
v  22.03433609  12.22619820 -2.80886817
v  22.02932549  12.22619820  4.07200146
v  22.02932549  12.22619820  4.07200146
v  19.89825821  12.22619820  10.61454582
v  19.89825821  12.22619820  10.61454582
v  15.84973431  12.22619820  16.17834091
v  15.84973431  12.22619820  16.17834091
v  10.28006077  12.22619820  20.21875381
v  10.28006077  12.22619820  20.21875381
v  3.73442292  12.22619820  22.34029579
v  3.73442292  12.22619820  22.34029579
v -3.14643764  12.22619820  22.33528328
v -3.14643764  12.22619820  22.33528328
v -9.68898773  12.22619820  20.20422554
v -9.68898773  12.22619820  20.20422554
v -15.25278378  12.22619820  16.15570450
v -15.25278378  12.22619820  16.15570450
v -19.29319763  12.22619820  10.58602428
v -19.29319763  12.22619820  10.58602428
v -21.41474152  12.22619820  4.04038334
v -21.41474152  12.22619820  4.04038334
v -21.40972710  12.22619820 -2.84048295
v -21.40972710  12.22619820 -2.84048295
v -19.27866173  12.22619820 -9.38302898
v -19.27866173  12.22619820 -9.38302898
v -15.23014641  12.22619820 -14.94681549
v -15.23014641  12.22619820 -14.94681549
v -9.66046333  12.22619820 -18.98723602
v -9.66046333  12.22619820 -18.98723602
v -3.11483240  12.22619820 -21.10876846
v -3.11483240  12.22619820 -21.10876846
v  3.76604390  12.22619820 -21.10377312
v  3.76604390  12.22619820 -21.10377312
v  10.30857944  12.22619820 -18.97269821
v  10.30857944  12.22619820 -18.97269821
v  15.87237358  12.22619820 -14.92417908
v  15.87237358  12.22619820 -14.92417908
v  19.28366280  12.92576981 -9.03452110
v  21.33712006  12.92576981 -2.69895935
v  21.33227158  12.92576981  3.96107674
v  19.26959610  12.92576981  10.29365063
v  15.35100365  12.92576981  15.67888355
v  9.96008110  12.92576981  19.58962440
v  3.62451267  12.92576981  21.64308167
v -3.03551435  12.92576981  21.63822746
v -9.36809540  12.92576981  19.57556534
v -14.75332642  12.92576981  15.65697384
v -18.66407394  12.92576981  10.26604557
v -20.71752548  12.92576981  3.93047476
v -20.71267509  12.92576981 -2.72955966
v -18.64999771  12.92576981 -9.06213284
v -14.73141479  12.92576981 -14.44735813
v -9.34048271  12.92576981 -18.35810661
v -3.00492382  12.92576981 -20.41155624
v  3.65512061  12.92576981 -20.40671730
v  9.98768520  12.92576981 -18.34403992
v  15.37291622  12.92576981 -14.42544842
v  18.19271851  13.62034035 -8.47966003
v  20.12809944  13.62034035 -2.50836730
v  20.12354088  13.62034035  3.76872420
v  18.17945099  13.62034035  9.73720169
v  14.48617363  13.62034035  14.81279278
v  9.40521240  13.62034035  18.49868011
v  3.43392801  13.62034035  20.43406296
v -2.84317040  13.62034035  20.42949295
v -8.81163788  13.62034035  18.48542213
v -13.88723660  13.62034035  14.79214382
v -17.57312012  13.62034035  9.71117687
v -19.50851250  13.62034035  3.73988938
v -19.50393486  13.62034035 -2.53721452
v -17.55986404  13.62034035 -8.50567818
v -13.86658478  13.62034035 -13.58126831
v -8.78562355  13.62034035 -17.26715469
v -2.81433034  13.62034035 -19.20254517
v  3.46276736  13.62034035 -19.19797707
v  9.43123722  13.62034035 -17.25390434
v  14.50682640  13.62034035 -13.56061840
v  16.33564568  14.04282188 -7.53513288
v  18.07005310  14.04282188 -2.18394089
v  18.06596375  14.04282188  3.44130349
v  16.32376289  14.04282188  8.78997612
v  13.01401520  14.04282188  13.33848953
v  8.46068859  14.04282188  16.64161491
v  3.10949469  14.04282188  18.37601852
v -2.51574898  14.04282188  18.37191963
v -7.86441803  14.04282188  16.62973595
v -12.41293240  14.04282188  13.31998444
v -15.71605778  14.04282188  8.76665783
v -17.45046425  14.04282188  3.41546583
v -17.44636536  14.04282188 -2.20978546
v -15.70417500  14.04282188 -7.55845070
v -12.39442539  14.04282188 -12.10696411
v -7.84109879  14.04282188 -15.41008949
v -2.48990488  14.04282188 -17.14449310
v  3.13534832  14.04282188 -17.14040184
v  8.48400879  14.04282188 -15.39820766
v  13.03252220  14.04282188 -12.08845806
v  13.70326042  14.63437271 -6.19627571
v  15.15277481  14.63437271 -1.72406209
v  15.14935970  14.63437271  2.97718549
v  13.69333172  14.63437271  7.44729280
v  10.92723846  14.63437271  11.24867344
v  7.12183571  14.63437271  14.00923157
v  2.64962268  14.63437271  15.45874310
v -2.05163240  14.63437271  15.45532227
v -6.52173042  14.63437271  13.99930096
v -10.32311630  14.63437271  11.23320866
v -13.08367157  14.63437271  7.42780066
v -14.53319550  14.63437271  2.95559359
v -14.52976131  14.63437271 -1.74566698
v -13.07374191  14.63437271 -6.21576643
v -10.30764961  14.63437271 -10.01714897
v -6.50224495  14.63437271 -12.77770424
v -2.03003263  14.63437271 -14.22721672
v  2.67122173  14.63437271 -14.22379684
v  7.14132118  14.63437271 -12.76777363
v  10.94270611  14.63437271 -10.00168228
v  10.06799698  14.86417007 -4.34734917
v  10.06799698  14.86417007 -4.34734917
v  11.12408352  14.86417007 -1.08898735
v  11.12408352  14.86417007 -1.08898735
v  11.12159252  14.86417007  2.33624625
v  11.12159252  14.86417007  2.33624625
v  10.06076431  14.86417007  5.59307003
v  10.06076431  14.86417007  5.59307003
v  8.04544258  14.86417007  8.36267948
v  8.04544258  14.86417007  8.36267948
v  5.27291059  14.86417007  10.37395954
v  5.27291059  14.86417007  10.37395954
v  2.01454663  14.86417007  11.43004704
v  2.01454663  14.86417007  11.43004704
v -1.41068625  14.86417007  11.42755127
v -1.41068625  14.86417007  11.42755127
v -4.66751480  14.86417007  10.36673164
v -4.66751480  14.86417007  10.36673164
v -7.43712187  14.86417007  8.35141182
v -7.43712187  14.86417007  8.35141182
v -9.44840717  14.86417007  5.57887506
v -9.44840717  14.86417007  5.57887506
v -10.50449371  14.86417007  2.32051277
v -10.50449371  14.86417007  2.32051277
v -10.50199509  14.86417007 -1.10472834
v -10.50199509  14.86417007 -1.10472834
v -9.44116497  14.86417007 -4.36155081
v -9.44116497  14.86417007 -4.36155081
v -7.42585278  14.86417007 -7.13115406
v -7.42585278  14.86417007 -7.13115406
v -4.65331125  14.86417007 -9.14243984
v -4.65331125  14.86417007 -9.14243984
v -1.39495587  14.86417007 -10.19851971
v -1.39495587  14.86417007 -10.19851971
v  2.03028512  14.86417007 -10.19603252
v  2.03028512  14.86417007 -10.19603252
v  5.28710604  14.86417007 -9.13520527
v  5.28710604  14.86417007 -9.13520527
v  8.05671310  14.86417007 -7.11988497
v  8.05671310  14.86417007 -7.11988497

vt  0.92602593  0.71668082
vt  0.97499996  0.57487845
vt  0.97213280  0.57442641
vt  0.97202396  0.42488667
vt  0.83977568  0.15972923
vt  0.83772475  0.16178311
vt  0.71799654  0.07138688
vt  0.57442629  0.02786716
vt  0.57487828  0.02500004
vt  0.42443052  0.02510964
vt  0.28137979  0.07170454
vt  0.16178313  0.16227511
vt  0.07138687  0.28200346
vt  0.07397395  0.28331926
vt  0.02500000  0.42512178
vt  0.02786704  0.42557368
vt  0.02510964  0.57556975
vt  0.28200349  0.92861336
vt  0.42557359  0.97213292
vt  0.57556969  0.97489077
vt  0.57511348  0.97202420
vt  0.71730053  0.92571032
vt  0.84027070  0.83977592
vt  0.92861307  0.71799660
vt  0.91485739  0.71100038
vt  0.95975554  0.57247537
vt  0.95964956  0.42685580
vt  0.97489041  0.42443046
vt  0.92829531  0.28137982
vt  0.91454989  0.28839609
vt  0.71100032  0.08514259
vt  0.28839600  0.08544999
vt  0.15972921  0.16022417
vt  0.17064968  0.17112875
vt  0.08514245  0.28899968
vt  0.04035046  0.57314444
vt  0.07170469  0.71862048
vt  0.16022417  0.84027088
vt  0.42512158  0.97499996
vt  0.42752469  0.95975566
vt  0.57314444  0.95964986
vt  0.71862012  0.92829549
vt  0.71160388  0.91455007
vt  0.89100426  0.69886857
vt  0.93332076  0.56830812
vt  0.82887107  0.17064969
vt  0.80996186  0.18958649
vt  0.57247514  0.04024441
vt  0.43106139  0.06677914
vt  0.42685583  0.04035054
vt  0.30056280  0.10928563
vt  0.18958646  0.19003798
vt  0.10899580  0.30113170
vt  0.04024440  0.42752489
vt  0.06667908  0.43169200
vt  0.08545022  0.71160412
vt  0.10928565  0.69943744
vt  0.17112876  0.82935041
vt  0.28899974  0.91485769
vt  0.43169194  0.93332100
vt  0.56893867  0.93322116
vt  0.82935023  0.82887137
vt  0.85039997  0.67821676
vt  0.88832223  0.56121469
vt  0.93322110  0.43106154
vt  0.89071417  0.30056268
vt  0.85014015  0.32127348
vt  0.77777362  0.22182167
vt  0.69886827  0.10899575
vt  0.56121451  0.11167770
vt  0.56830812  0.06667922
vt  0.22182164  0.22222628
vt  0.14959987  0.32178333
vt  0.06677917  0.56893885
vt  0.14985968  0.67872661
vt  0.19003800  0.81041360
vt  0.32178330  0.85040015
vt  0.30113158  0.89100438
vt  0.56177980  0.88823295
vt  0.67872643  0.85014039
vt  0.69943732  0.89071459
vt  0.81041342  0.80996209
vt  0.88823283  0.43822050
vt  0.79262662  0.35063079
vt  0.73214692  0.26751482
vt  0.67821664  0.14959988
vt  0.55115950  0.17546299
vt  0.43822035  0.11176732
vt  0.32127342  0.14985962
vt  0.11167763  0.43878540
vt  0.17553785  0.55163193
vt  0.11176725  0.56177974
vt  0.22222628  0.77817839
vt  0.43878540  0.88832241
vt  0.55163175  0.82446229
vt  0.64936900  0.79262680
vt  0.77817822  0.77777374
vt  0.79284370  0.64894307
vt  0.71335989  0.60851687
vt  0.82453686  0.55115956
vt  0.73645085  0.53727388
vt  0.73639637  0.46238223
vt  0.82446223  0.44836828
vt  0.64894301  0.20715611
vt  0.60851681  0.28664017
vt  0.53727382  0.26354915
vt  0.44836810  0.17553779
vt  0.46238220  0.26360372
vt  0.39117268  0.28679821
vt  0.35063085  0.20737323
vt  0.26751480  0.26785296
vt  0.33061612  0.33086252
vt  0.28664002  0.39148316
vt  0.20715615  0.35105702
vt  0.26354903  0.46272621
vt  0.17546277  0.44884038
vt  0.26360366  0.53761804
vt  0.20737325  0.64936924
vt  0.26785296  0.73248529
vt  0.33086252  0.66938388
vt  0.35105690  0.79284388
vt  0.46272612  0.73645085
vt  0.44884038  0.82453704
vt  0.53761792  0.73639649
vt  0.73248512  0.73214710
vt  0.66938376  0.66913754
vt  0.60882723  0.71320182
vt  0.39148325  0.71336007
vt  0.28679836  0.60882741
vt  0.66913742  0.33061618
vt  0.71320170  0.39117280
vt  0.92571002  0.28269938
vt  0.71668059  0.07397392
vt  0.42488658  0.02797605
vt  0.28269938  0.07428974
vt  0.02797605  0.57511359
vt  0.07428986  0.71730071
vt  0.16227511  0.83821690
vt  0.28331926  0.92602611
vt  0.83821678  0.83772498

vn  0.96355993 -0.22018263 -0.15189464
vn  0.96333760 -0.22018342  0.15329678
vn  0.86881751 -0.22018269  0.44348139
vn  0.68925101 -0.22018303  0.69025534
vn  0.44221655 -0.22017877  0.86946291
vn  0.15189409 -0.22017805  0.96356100
vn -0.15329638 -0.22017723  0.96333909
vn -0.44348115 -0.22017632  0.86881918
vn -0.69025552 -0.22018087  0.68925154
vn -0.86946273 -0.22018011  0.44221628
vn -0.96356165 -0.22017528  0.15189399
vn -0.96333933 -0.22017573 -0.15329698
vn -0.86881816 -0.22018024 -0.44348133
vn -0.68925124 -0.22018258 -0.69025522
vn -0.44221574 -0.22018482 -0.86946183
vn -0.15189441 -0.22018211 -0.96356004
vn  0.15329607 -0.22018364 -0.96333766
vn  0.44348183 -0.22018453 -0.86881679
vn  0.69025540 -0.22018130 -0.68925148
vn  0.86946225 -0.22018133 -0.44221666
vn  0.69536704  0.71024561 -0.10961692
vn  0.69520611  0.71024621  0.11062870
vn  0.53785425  0.79708129  0.27454379
vn  0.62699425  0.71024621  0.32004461
vn  0.42669073  0.79708165  0.42731231
vn  0.49740756  0.71024638  0.49813229
vn  0.31913143  0.71024662  0.62745905
vn  0.09403209  0.79708141  0.59650576
vn  0.10961617  0.71024621  0.69536656
vn -0.11062811  0.71024609  0.69520640
vn -0.27454305  0.79708141  0.53785437
vn -0.32004422  0.71024585  0.62699485
vn -0.49813271  0.71024555  0.49740833
vn -0.53825331  0.79708129  0.27376038
vn -0.62746060  0.71024519  0.31913167
vn -0.69536752  0.71024513  0.10961652
vn -0.69520664  0.71024567 -0.11062910
vn -0.62699449  0.71024609 -0.32004443
vn -0.53785425  0.79708129 -0.27454358
vn -0.49740720  0.71024704 -0.49813172
vn -0.42669088  0.79708159 -0.42731234
vn -0.31913120  0.71024686 -0.62745893
vn -0.10961675  0.71024573 -0.69536692
vn -0.09403239  0.79708105 -0.59650618
vn  0.11062834  0.71024567 -0.69520676
vn  0.32004529  0.71024555 -0.62699461
vn  0.49813277  0.71024543 -0.49740839
vn  0.53825372  0.79708087 -0.27376071
vn  0.62746000  0.71024555 -0.31913197
vn  0.31225401  0.93662971 -0.15881518
vn  0.34604749  0.93662977 -0.05455064
vn  0.59650606  0.79708117 -0.09403268
vn  0.59636813  0.79708147  0.09490061
vn  0.24753372  0.93662983  0.24789424
vn  0.27376032  0.79708147  0.53825307
vn  0.15881513  0.93662971  0.31225398
vn  0.05455038  0.93662971  0.34604767
vn -0.09490021  0.79708129  0.59636843
vn -0.42731252  0.79708147  0.42669091
vn -0.59650612  0.79708117  0.09403206
vn -0.34596801  0.93662971 -0.05505417
vn -0.59636867  0.79708111 -0.09490076
vn -0.24753405  0.93662965 -0.24789460
vn -0.15881510  0.93662983 -0.31225362
vn -0.27376023  0.79708177 -0.53825271
vn -0.05455047  0.93662971 -0.34604776
vn  0.05505388  0.93662977 -0.34596777
vn  0.09490012  0.79708123 -0.59636861
vn  0.27454418  0.79708111 -0.53785425
vn  0.24789464  0.93662965 -0.24753410
vn  0.42731306  0.79708076 -0.42669168
vn  0.34596774  0.93662977  0.05505417
vn  0.31202242  0.93662965  0.15926966
vn -0.03104835  0.98028928  0.19511263
vn -0.05505405  0.93662965  0.34596801
vn -0.08982176  0.98028928  0.17596865
vn -0.15926908  0.93662977  0.31202239
vn -0.24789420  0.93662989  0.24753350
vn -0.31225339  0.93662989  0.15881500
vn -0.34604743  0.93662983  0.05455021
vn -0.19515751  0.98028934  0.03076430
vn -0.19511257  0.98028928 -0.03104851
vn -0.31202242  0.93662971 -0.15926950
vn -0.13959943  0.98028934 -0.13980281
vn  0.03104835  0.98028940 -0.19511223
vn  0.08982164  0.98028940 -0.17596820
vn  0.15926956  0.93662983 -0.31202212
vn  0.13980266  0.98028940 -0.13959925
vn  0.19515716  0.98028940 -0.03076441
vn  0.12508394  0.99195015 -0.01971815
vn  0.19511230  0.98028934  0.03104832
vn  0.12505510  0.99195015  0.01990007
vn  0.17596841  0.98028934  0.08982188
vn  0.11278509  0.99195015  0.05757036
vn  0.13959952  0.98028934  0.13980283
vn  0.05740609  0.99195015  0.11286879
vn  0.08956555  0.98028934  0.17609903
vn  0.03076428  0.98028928  0.19515751
vn -0.01990010  0.99195015  0.12505525
vn -0.05757023  0.99195015  0.11278513
vn -0.13980286  0.98028934  0.13959950
vn -0.17609902  0.98028934  0.08956567
vn -0.12508403  0.99195015  0.01971802
vn -0.17596845  0.98028934 -0.08982173
vn -0.08947479  0.99195015 -0.08960514
vn -0.05740606  0.99195015 -0.11286881
vn -0.08956552  0.98028934 -0.17609900
vn -0.03076435  0.98028934 -0.19515727
vn  0.05757025  0.99195015 -0.11278500
vn  0.08960513  0.99195015 -0.08947476
vn  0.17609879  0.98028940 -0.08956547
vn  0.05014230  0.99841642 -0.02550283
vn  0.05556899  0.99841642 -0.00875984
vn  0.05555615  0.99841642  0.00884067
vn  0.05010510  0.99841642  0.02557579
vn  0.08947483  0.99195015  0.08960515
vn  0.03974943  0.99841642  0.03980735
vn  0.02550281  0.99841642  0.05014225
vn  0.00875979  0.99841642  0.05556891
vn  0.01971805  0.99195015  0.12508401
vn -0.00884062  0.99841642  0.05555610
vn -0.02557571  0.99841642  0.05010508
vn -0.03980735  0.99841642  0.03974945
vn -0.08960511  0.99195015  0.08947475
vn -0.11286871  0.99195015  0.05740616
vn -0.05014228  0.99841642  0.02550283
vn -0.05556891  0.99841642  0.00875977
vn -0.05555608  0.99841642 -0.00884075
vn -0.12505527  0.99195015 -0.01990025
vn -0.05010510  0.99841642 -0.02557577
vn -0.11278506  0.99195015 -0.05757025
vn -0.03974942  0.99841642 -0.03980730
vn -0.02550278  0.99841642 -0.05014230
vn -0.01971808  0.99195015 -0.12508397
vn -0.00875983  0.99841642 -0.05556893
vn  0.01990007  0.99195015 -0.12505509
vn  0.00884064  0.99841642 -0.05555613
vn  0.02557582  0.99841642 -0.05010514
vn  0.03980736  0.99841642 -0.03974945
vn  0.11286879  0.99195015 -0.05740607
vn  0.00000000  1.00000000  0.00000000
vn  0.00000000 -1.00000000  0.00000000

g sweep_2
usemtl cookie
f 2/1/20 42/24/20 43/2/1 4/3/1
f 4/3/1 43/2/1 46/28/2 6/4/2
f 6/4/2 46/28/2 48/29/3 8/132/3
f 8/132/3 48/29/3 50/5/4 9/6/4
f 9/6/4 50/5/4 52/7/5 12/133/5
f 12/133/5 52/7/5 54/9/6 14/8/6
f 14/8/6 54/9/6 56/10/7 16/134/7
f 16/134/7 56/10/7 58/11/8 18/135/8
f 18/135/8 58/11/8 60/33/9 20/12/9
f 20/12/9 60/33/9 62/13/10 22/14/10
f 22/14/10 62/13/10 64/15/11 24/16/11
f 24/16/11 64/15/11 66/17/12 26/136/12
f 26/136/12 66/17/12 68/37/13 28/137/13
f 28/137/13 68/37/13 69/38/14 29/138/14
f 29/138/14 69/38/14 72/18/15 32/139/15
f 32/139/15 72/18/15 74/39/16 33/19/16
f 33/19/16 74/39/16 76/20/17 36/21/17
f 36/21/17 76/20/17 78/42/18 38/22/18
f 38/22/18 78/42/18 80/23/19 40/140/19
f 40/140/19 80/23/19 42/24/20 2/1/20
f 41/24/49 81/25/48 82/26/52 44/2/21
f 44/2/21 82/26/52 83/27/53 45/28/22
f 45/28/22 83/27/53 84/30/23 47/29/24
f 47/29/24 84/30/23 85/46/25 49/5/26
f 49/5/26 85/46/25 86/31/55 51/7/27
f 51/7/27 86/31/55 87/48/28 53/9/29
f 53/9/29 87/48/28 88/50/58 55/10/30
f 55/10/30 88/50/58 89/32/31 57/11/32
f 57/11/32 89/32/31 90/34/59 59/33/33
f 59/33/33 90/34/59 91/35/34 61/13/35
f 61/13/35 91/35/34 92/54/60 63/15/36
f 63/15/36 92/54/60 93/36/62 65/17/37
f 65/17/37 93/36/62 94/56/39 67/37/38
f 67/37/38 94/56/39 95/58/41 70/38/40
f 70/38/40 95/58/41 96/59/65 71/18/42
f 71/18/42 96/59/65 97/40/44 73/39/43
f 73/39/43 97/40/44 98/41/68 75/20/45
f 75/20/45 98/41/68 99/43/69 77/42/46
f 77/42/46 99/43/69 100/62/71 79/23/47
f 79/23/47 100/62/71 81/25/48 41/24/49
f 81/25/48 101/44/50 102/45/51 82/26/52
f 82/26/52 102/45/51 103/65/72 83/27/53
f 83/27/53 103/65/72 104/66/73 84/30/23
f 84/30/23 104/66/73 105/47/54 85/46/25
f 85/46/25 105/47/54 106/69/56 86/31/55
f 86/31/55 106/69/56 107/71/57 87/48/28
f 87/48/28 107/71/57 108/49/75 88/50/58
f 88/50/58 108/49/75 109/51/77 89/32/31
f 89/32/31 109/51/77 110/52/78 90/34/59
f 90/34/59 110/52/78 111/53/79 91/35/34
f 91/35/34 111/53/79 112/55/80 92/54/60
f 92/54/60 112/55/80 113/74/61 93/36/62
f 93/36/62 113/74/61 114/57/83 94/56/39
f 94/56/39 114/57/83 115/76/63 95/58/41
f 95/58/41 115/76/63 116/78/64 96/59/65
f 96/59/65 116/78/64 117/60/66 97/40/44
f 97/40/44 117/60/66 118/61/67 98/41/68
f 98/41/68 118/61/67 119/81/87 99/43/69
f 99/43/69 119/81/87 120/82/70 100/62/71
f 100/62/71 120/82/70 101/44/50 81/25/48
f 101/44/50 121/63/111 122/64/89 102/45/51
f 102/45/51 122/64/89 123/83/91 103/65/72
f 103/65/72 123/83/91 124/67/93 104/66/73
f 104/66/73 124/67/93 125/68/95 105/47/54
f 105/47/54 125/68/95 126/86/97 106/69/56
f 106/69/56 126/86/97 127/70/98 107/71/57
f 107/71/57 127/70/98 128/88/74 108/49/75
f 108/49/75 128/88/74 129/89/76 109/51/77
f 109/51/77 129/89/76 130/72/101 110/52/78
f 110/52/78 130/72/101 131/73/102 111/53/79
f 111/53/79 131/73/102 132/90/81 112/55/80
f 112/55/80 132/90/81 133/92/82 113/74/61
f 113/74/61 133/92/82 134/75/104 114/57/83
f 114/57/83 134/75/104 135/93/84 115/76/63
f 115/76/63 135/93/84 136/77/107 116/78/64
f 116/78/64 136/77/107 137/94/108 117/60/66
f 117/60/66 137/94/108 138/79/85 118/61/67
f 118/61/67 138/79/85 139/80/86 119/81/87
f 119/81/87 139/80/86 140/97/88 120/82/70
f 120/82/70 140/97/88 121/63/111 101/44/50
f 121/63/111 141/98/140 142/100/90 122/64/89
f 122/64/89 142/100/90 143/103/92 123/83/91
f 123/83/91 143/103/92 144/84/94 124/67/93
f 124/67/93 144/84/94 145/85/116 125/68/95
f 125/68/95 145/85/116 146/104/96 126/86/97
f 126/86/97 146/104/96 147/87/120 127/70/98
f 127/70/98 147/87/120 148/107/99 128/88/74
f 128/88/74 148/107/99 149/110/100 129/89/76
f 129/89/76 149/110/100 150/111/124 130/72/101
f 130/72/101 150/111/124 151/114/125 131/73/102
f 131/73/102 151/114/125 152/116/103 132/90/81
f 132/90/81 152/116/103 153/91/129 133/92/82
f 133/92/82 153/91/129 154/118/131 134/75/104
f 134/75/104 154/118/131 155/119/105 135/93/84
f 135/93/84 155/119/105 156/121/106 136/77/107
f 136/77/107 156/121/106 157/123/134 137/94/108
f 137/94/108 157/123/134 158/95/136 138/79/85
f 138/79/85 158/95/136 159/96/109 139/80/86
f 139/80/86 159/96/109 160/125/110 140/97/88
f 140/97/88 160/125/110 141/98/140 121/63/111
f 141/98/140 162/99/112 164/101/113 142/100/90
f 142/100/90 164/101/113 166/102/114 143/103/92
f 143/103/92 166/102/114 168/131/115 144/84/94
f 144/84/94 168/131/115 170/130/117 145/85/116
f 145/85/116 170/130/117 172/105/118 146/104/96
f 146/104/96 172/105/118 174/106/119 147/87/120
f 147/87/120 174/106/119 176/108/121 148/107/99
f 148/107/99 176/108/121 178/109/122 149/110/100
f 149/110/100 178/109/122 180/112/123 150/111/124
f 150/111/124 180/112/123 182/113/126 151/114/125
f 151/114/125 182/113/126 184/115/127 152/116/103
f 152/116/103 184/115/127 186/117/128 153/91/129
f 153/91/129 186/117/128 188/129/130 154/118/131
f 154/118/131 188/129/130 190/120/132 155/119/105
f 155/119/105 190/120/132 192/128/133 156/121/106
f 156/121/106 192/128/133 194/122/135 157/123/134
f 157/123/134 194/122/135 196/124/137 158/95/136
f 158/95/136 196/124/137 198/127/138 159/96/109
f 159/96/109 198/127/138 200/126/139 160/125/110
f 160/125/110 200/126/139 162/99/112 141/98/140
f 199/126/141 197/127/141 195/124/141 193/122/141 191/128/141 189/120/141 187/129/141 185/117/141 183/115/141 181/113/141 179/112/141 177/109/141 175/108/141 173/106/141 171/105/141 169/130/141 167/131/141 165/102/141 163/101/141 161/99/141
f 1/1/142 3/3/142 5/4/142 7/132/142 10/6/142 11/133/142 13/8/142 15/134/142 17/135/142 19/12/142 21/14/142 23/16/142 25/136/142 27/137/142 30/138/142 31/139/142 34/19/142 35/21/142 37/22/142 39/140/142
